<?xml version="1.0" standalone="no"?>
<!DOCTYPE svg PUBLIC "-//W3C//DTD SVG 20010904//EN"
 "http://www.w3.org/TR/2001/REC-SVG-20010904/DTD/svg10.dtd">
<svg version="1.0" xmlns="http://www.w3.org/2000/svg"
 width="460.000000pt" height="460.000000pt" viewBox="0 0 460.000000 460.000000"
 preserveAspectRatio="xMidYMid meet">
<metadata>
Created by potrace 1.14, written by Peter Selinger 2001-2017
</metadata>
<g transform="translate(0.000000,460.000000) scale(0.100000,-0.100000)"
fill="#000000" stroke="none">
<path d="M2155 4581 c-22 -5 -61 -11 -86 -14 -53 -6 -124 -23 -154 -37 -11 -5
-45 -16 -75 -26 -30 -9 -77 -28 -105 -42 -27 -14 -81 -28 -120 -33 -101 -13
-191 -62 -235 -128 -14 -20 -25 -38 -25 -41 0 -3 -7 -16 -15 -30 -8 -15 -14
-53 -14 -95 0 -75 18 -123 69 -183 l26 -32 -49 -83 c-48 -82 -54 -98 -93 -247
-30 -111 -32 -462 -4 -549 5 -15 -2 -22 -29 -31 -30 -10 -41 -22 -66 -75 -30
-62 -30 -65 -30 -227 0 -160 1 -166 28 -219 24 -48 35 -58 92 -86 36 -18 62
-33 58 -33 -8 0 17 -107 47 -196 27 -84 89 -206 125 -250 14 -18 35 -45 47
-60 25 -33 114 -122 158 -157 31 -25 72 -51 138 -87 23 -13 37 -28 37 -40 0
-22 2 -21 -145 -46 -55 -9 -116 -23 -135 -31 -78 -33 -127 -60 -165 -92 -65
-57 -87 -95 -120 -217 -2 -7 -16 -18 -32 -26 -77 -40 -151 -83 -175 -102 -15
-11 -43 -32 -63 -46 -52 -37 -265 -256 -265 -274 0 -3 -13 -25 -30 -48 -16
-22 -30 -45 -30 -49 0 -4 -13 -30 -29 -57 -33 -57 -106 -268 -115 -332 -3 -25
-8 -93 -12 -152 l-7 -108 1743 0 1743 0 -7 108 c-4 59 -9 127 -12 152 -13 103
-118 364 -180 447 -13 17 -24 35 -24 39 0 21 -269 294 -290 294 -5 0 -22 11
-38 25 -28 23 -106 69 -178 103 -26 12 -32 23 -42 72 -7 32 -21 69 -32 83 -11
14 -20 29 -20 34 0 12 -86 83 -125 103 -67 34 -135 60 -170 65 -34 4 -132 21
-182 31 -37 7 -29 40 15 64 72 40 107 62 125 81 10 10 21 19 26 19 9 0 96 84
134 131 54 66 97 124 97 131 0 4 13 29 28 55 41 70 113 301 104 334 0 4 18 14
42 23 59 23 91 52 115 106 18 39 21 66 21 210 0 145 -3 171 -21 210 -22 49
-56 90 -74 90 -6 0 -19 6 -28 13 -15 11 -16 16 -2 62 26 85 38 306 26 500 -3
59 -59 245 -89 296 -13 24 -13 31 3 73 26 67 16 155 -23 210 -33 47 -93 84
-137 86 -25 1 -36 10 -64 55 -30 48 -40 55 -83 65 -27 7 -59 9 -73 6 -19 -5
-34 4 -76 44 -62 60 -189 124 -286 146 -79 18 -310 27 -368 15z"/>
</g>
</svg>
